<svg xmlns="http://www.w3.org/2000/svg" xmlns:xlink="http://www.w3.org/1999/xlink" width="96" zoomAndPan="magnify" viewBox="0 0 72 72" height="96" preserveAspectRatio="xMidYMid meet" version="1.0"><defs><clipPath id="63b1e72e8c"><path d="M 1 4.632812 L 70.75 4.632812 L 70.75 67.632812 L 1 67.632812 Z M 1 4.632812 " clip-rule="nonzero"/></clipPath></defs><g clip-path="url(#63b1e72e8c)"><path fill="#0196cc" d="M 54.78125 18.757812 C 52.71875 17.125 50.238281 16.1875 47.976562 16.1875 C 46.519531 16.1875 42.347656 16.679688 40.9375 22.054688 L 40.9375 8.484375 C 40.9375 6.570312 39.226562 4.632812 35.957031 4.632812 C 32.699219 4.632812 30.996094 6.570312 30.996094 8.484375 L 30.996094 21.839844 C 29.53125 16.667969 25.453125 16.1875 24.015625 16.1875 C 21.753906 16.1875 19.273438 17.125 17.210938 18.757812 C 5.476562 28.042969 1.644531 47.207031 1.253906 56.046875 C 0.996094 61.945312 5.015625 66.910156 10.40625 67.34375 C 10.5625 67.355469 10.722656 67.363281 10.890625 67.363281 C 12.539062 67.363281 14.769531 66.703125 16.191406 65.800781 L 23.96875 60.851562 C 28.691406 57.964844 31.527344 52.949219 31.527344 47.453125 L 31.527344 40.601562 C 32.507812 40.132812 33.441406 39.707031 34.226562 39.347656 C 35 38.996094 35.570312 38.734375 36.003906 38.527344 C 36.542969 38.78125 37.152344 39.0625 37.78125 39.351562 C 38.636719 39.746094 39.574219 40.175781 40.46875 40.601562 L 40.46875 47.453125 C 40.46875 52.949219 43.300781 57.964844 48.050781 60.871094 L 55.800781 65.800781 C 57.226562 66.703125 59.453125 67.363281 61.101562 67.363281 C 61.269531 67.363281 61.429688 67.355469 61.585938 67.34375 C 66.976562 66.910156 70.996094 61.945312 70.738281 56.046875 C 70.347656 47.207031 66.515625 28.042969 54.78125 18.757812 Z M 36.34375 35.917969 C 36.285156 35.882812 36.222656 35.855469 36.160156 35.839844 C 36.136719 35.828125 36.113281 35.820312 36.089844 35.8125 C 36 35.808594 35.914062 35.808594 35.828125 35.8125 C 35.792969 35.820312 35.757812 35.835938 35.722656 35.851562 C 35.671875 35.867188 35.625 35.886719 35.578125 35.914062 C 35.308594 36.09375 34.339844 36.535156 33.21875 37.046875 C 30.558594 38.257812 26.507812 40.105469 23.601562 42.113281 C 23.433594 42.144531 23.289062 42.222656 23.171875 42.347656 C 23.160156 42.359375 23.105469 42.425781 23.039062 42.515625 C 22.46875 42.925781 21.933594 43.378906 21.433594 43.875 C 17.539062 47.820312 17.46875 54.949219 17.5 56.304688 C 17.453125 56.789062 17.367188 57.085938 17.292969 57.25 C 17.167969 57.066406 17.078125 56.863281 17.023438 56.644531 C 16.933594 56.152344 16.65625 53.003906 17.21875 49.792969 C 17.324219 49.550781 17.410156 49.300781 17.476562 49.046875 C 17.503906 48.914062 17.496094 48.78125 17.453125 48.652344 C 17.597656 48.046875 17.78125 47.453125 18.003906 46.871094 C 18.09375 46.648438 18.070312 46.433594 17.933594 46.234375 C 17.792969 46.03125 17.597656 45.933594 17.347656 45.9375 C 14.71875 45.9375 11.890625 44.992188 10.457031 44.054688 C 10.097656 43.820312 9.894531 43.585938 9.828125 43.464844 C 9.972656 43.320312 10.121094 43.292969 10.742188 43.589844 C 13.796875 45.066406 18.210938 45.234375 19.484375 43.925781 C 19.507812 43.898438 19.53125 43.871094 19.550781 43.84375 C 19.933594 43.3125 20.453125 42.78125 20.957031 42.285156 C 22.214844 41.035156 23.054688 40.269531 24.144531 39.550781 C 24.308594 39.445312 24.40625 39.292969 24.441406 39.101562 C 24.476562 38.910156 24.4375 38.734375 24.320312 38.578125 C 23.898438 37.996094 22.921875 37.230469 21.523438 36.6875 C 21.414062 36.589844 21.289062 36.527344 21.144531 36.503906 C 21.078125 36.492188 21.011719 36.488281 20.9375 36.480469 C 19.171875 35.925781 16.851562 35.75 14.175781 36.621094 C 14.054688 36.664062 13.9375 36.707031 13.828125 36.75 C 13.730469 36.789062 13.609375 36.835938 13.535156 36.855469 C 13.546875 36.785156 13.6875 36.570312 14.066406 36.316406 C 15.976562 35.023438 19.921875 34.660156 21.886719 35.59375 C 22.132812 35.710938 22.367188 35.691406 22.585938 35.53125 C 22.804688 35.371094 22.898438 35.15625 22.863281 34.890625 C 22.464844 31.792969 22.726562 27.589844 23.4375 25.71875 C 23.75 24.882812 24.222656 24.4375 24.433594 24.332031 C 24.589844 24.632812 24.460938 25.230469 24.363281 25.675781 C 24.335938 25.800781 24.3125 25.921875 24.289062 26.035156 C 23.539062 30.125 23.640625 36.769531 26.253906 38.042969 C 26.480469 38.152344 26.703125 38.140625 26.917969 38.007812 C 27.28125 37.777344 27.65625 37.554688 28.027344 37.332031 C 30.597656 35.792969 33.507812 34.054688 33.507812 30.390625 L 33.507812 24.496094 C 33.804688 23.882812 34.722656 23.472656 35.921875 23.472656 C 37.152344 23.472656 38.121094 23.898438 38.429688 24.511719 L 38.429688 30.390625 C 38.429688 30.496094 38.453125 30.59375 38.5 30.6875 C 38.65625 34.144531 41.46875 35.835938 43.964844 37.332031 C 44.339844 37.554688 44.710938 37.777344 45.074219 38.003906 C 45.289062 38.140625 45.511719 38.152344 45.738281 38.039062 C 48.355469 36.769531 48.457031 30.125 47.703125 26.035156 C 47.683594 25.921875 47.65625 25.800781 47.628906 25.671875 C 47.53125 25.226562 47.40625 24.632812 47.558594 24.332031 C 47.773438 24.4375 48.242188 24.882812 48.558594 25.714844 C 49.265625 27.589844 49.53125 31.789062 49.132812 34.886719 C 49.097656 35.15625 49.1875 35.371094 49.410156 35.53125 C 49.628906 35.6875 49.859375 35.710938 50.105469 35.59375 C 52.070312 34.660156 56.019531 35.023438 57.929688 36.316406 C 58.304688 36.570312 58.449219 36.789062 58.445312 36.847656 C 58.371094 36.828125 58.253906 36.785156 58.167969 36.75 C 58.054688 36.707031 57.9375 36.660156 57.816406 36.621094 C 55.144531 35.75 52.824219 35.921875 51.058594 36.480469 C 50.984375 36.484375 50.914062 36.492188 50.847656 36.503906 C 50.703125 36.527344 50.578125 36.589844 50.46875 36.6875 C 49.070312 37.230469 48.09375 37.996094 47.671875 38.578125 C 47.558594 38.734375 47.515625 38.910156 47.550781 39.101562 C 47.585938 39.292969 47.6875 39.445312 47.847656 39.550781 C 48.9375 40.269531 49.777344 41.035156 51.035156 42.285156 C 51.539062 42.78125 52.0625 43.3125 52.441406 43.84375 C 52.460938 43.871094 52.484375 43.898438 52.507812 43.925781 C 53.78125 45.234375 58.195312 45.066406 61.25 43.589844 C 61.871094 43.292969 62.015625 43.324219 62.164062 43.464844 C 62.097656 43.585938 61.894531 43.824219 61.535156 44.054688 C 60.101562 44.992188 57.277344 45.9375 54.625 45.9375 C 54.511719 45.9375 54.40625 45.964844 54.304688 46.015625 C 54.203125 46.070312 54.121094 46.144531 54.058594 46.238281 C 53.996094 46.328125 53.957031 46.433594 53.945312 46.546875 C 53.933594 46.65625 53.945312 46.765625 53.988281 46.871094 C 54.210938 47.453125 54.394531 48.046875 54.539062 48.652344 C 54.496094 48.78125 54.488281 48.914062 54.515625 49.046875 C 54.582031 49.300781 54.667969 49.550781 54.777344 49.792969 C 55.339844 53.003906 55.0625 56.144531 54.976562 56.613281 C 54.921875 56.839844 54.828125 57.054688 54.699219 57.25 C 54.582031 56.957031 54.515625 56.652344 54.496094 56.339844 C 54.523438 54.953125 54.457031 47.828125 50.558594 43.875 C 50.0625 43.382812 49.527344 42.933594 48.960938 42.523438 C 48.890625 42.429688 48.832031 42.359375 48.824219 42.347656 C 48.703125 42.21875 48.554688 42.140625 48.382812 42.109375 C 45.464844 40.105469 41.394531 38.261719 38.71875 37.050781 C 37.582031 36.539062 36.601562 36.09375 36.34375 35.917969 Z M 28.859375 35.207031 C 28.367188 35.53125 27.851562 35.839844 27.324219 36.15625 C 27.070312 36.308594 26.820312 36.457031 26.570312 36.609375 C 25.316406 35.40625 24.84375 30.578125 25.636719 26.285156 C 25.65625 26.183594 25.679688 26.074219 25.703125 25.960938 C 25.863281 25.214844 26.085938 24.1875 25.457031 23.410156 C 25.15625 23.023438 24.765625 22.875 24.285156 22.957031 C 23.464844 23.089844 22.628906 23.980469 22.15625 25.230469 C 21.863281 26.007812 21.640625 27.109375 21.496094 28.351562 C 21.429688 28.269531 21.375 28.179688 21.300781 28.101562 C 20.355469 27.097656 18.992188 26.589844 17.238281 26.589844 C 17.039062 26.589844 16.871094 26.65625 16.730469 26.796875 C 16.589844 26.933594 16.519531 27.101562 16.519531 27.300781 C 16.519531 27.5 16.589844 27.667969 16.730469 27.804688 C 16.871094 27.945312 17.039062 28.011719 17.238281 28.011719 C 18.578125 28.011719 19.59375 28.363281 20.257812 29.0625 C 21.238281 30.097656 21.175781 31.59375 21.171875 31.609375 C 21.167969 31.773438 21.214844 31.921875 21.3125 32.054688 C 21.320312 32.703125 21.339844 33.351562 21.390625 33.976562 C 20.476562 33.742188 19.414062 33.664062 18.332031 33.722656 C 18.078125 33.714844 16.207031 33.679688 15.914062 31.125 C 15.894531 30.96875 15.824219 30.84375 15.699219 30.746094 C 15.578125 30.648438 15.4375 30.609375 15.28125 30.625 C 15.125 30.644531 14.996094 30.714844 14.898438 30.835938 C 14.800781 30.960938 14.757812 31.101562 14.773438 31.257812 C 14.929688 32.609375 15.46875 33.480469 16.105469 34.035156 C 15.039062 34.285156 14.054688 34.667969 13.296875 35.179688 C 12.035156 36.035156 11.996094 36.980469 12.386719 37.574219 C 13.007812 38.535156 13.863281 38.207031 14.324219 38.027344 C 14.410156 37.992188 14.503906 37.957031 14.601562 37.925781 C 15.71875 37.550781 16.863281 37.378906 18.035156 37.398438 C 17.414062 37.917969 16.871094 38.691406 16.566406 39.828125 C 16.511719 40.042969 16.539062 40.242188 16.648438 40.433594 C 16.757812 40.625 16.921875 40.75 17.132812 40.804688 C 17.199219 40.824219 17.269531 40.832031 17.339844 40.832031 C 17.519531 40.832031 17.683594 40.777344 17.824219 40.667969 C 17.96875 40.558594 18.0625 40.414062 18.109375 40.238281 C 18.742188 37.875 20.691406 38.058594 20.917969 38.085938 C 21.023438 38.101562 21.132812 38.09375 21.238281 38.0625 C 21.761719 38.277344 22.25 38.550781 22.703125 38.886719 C 21.828125 39.535156 21.046875 40.261719 19.992188 41.3125 C 19.464844 41.835938 18.914062 42.394531 18.476562 42.996094 C 17.832031 43.554688 14.339844 43.808594 11.339844 42.359375 C 10.8125 42.101562 9.714844 41.574219 8.78125 42.578125 C 8.511719 42.859375 8.402344 43.195312 8.449219 43.582031 C 8.542969 44.339844 9.277344 44.921875 9.710938 45.203125 C 10.371094 45.617188 11.066406 45.960938 11.800781 46.234375 C 10.683594 46.691406 9.699219 47.523438 9.414062 48.949219 C 9.382812 49.105469 9.410156 49.246094 9.5 49.378906 C 9.585938 49.511719 9.707031 49.59375 9.863281 49.625 C 9.898438 49.628906 9.9375 49.632812 9.976562 49.632812 C 10.113281 49.632812 10.234375 49.589844 10.339844 49.503906 C 10.445312 49.417969 10.511719 49.308594 10.535156 49.171875 C 10.894531 47.378906 12.90625 46.984375 14.035156 46.90625 C 14.816406 47.089844 15.609375 47.210938 16.414062 47.273438 C 16.300781 47.625 16.207031 47.980469 16.121094 48.339844 C 16.019531 48.441406 15.953125 48.558594 15.917969 48.699219 C 15.910156 48.742188 14.886719 52.980469 7.996094 52.980469 C 7.773438 52.976562 7.585938 53.054688 7.425781 53.210938 C 7.269531 53.367188 7.191406 53.554688 7.191406 53.777344 C 7.191406 54 7.269531 54.1875 7.425781 54.34375 C 7.585938 54.503906 7.773438 54.578125 7.996094 54.578125 C 9.472656 54.578125 10.714844 54.398438 11.773438 54.113281 C 11.074219 55.269531 10.386719 56.984375 10.769531 58.90625 C 10.796875 59.039062 10.863281 59.148438 10.96875 59.238281 C 11.074219 59.324219 11.195312 59.367188 11.332031 59.367188 C 11.367188 59.367188 11.40625 59.363281 11.445312 59.355469 C 11.597656 59.324219 11.71875 59.242188 11.808594 59.113281 C 11.894531 58.980469 11.925781 58.835938 11.894531 58.679688 C 11.332031 55.867188 13.714844 53.425781 13.738281 53.402344 C 13.753906 53.386719 13.761719 53.367188 13.773438 53.351562 C 14.429688 53.015625 15.023438 52.59375 15.5625 52.089844 C 15.390625 54.667969 15.628906 56.738281 15.695312 56.972656 C 15.992188 58.070312 16.617188 58.734375 17.332031 58.734375 C 17.363281 58.734375 17.398438 58.730469 17.429688 58.730469 C 17.988281 58.683594 18.6875 58.246094 18.863281 56.441406 C 18.867188 56.414062 18.867188 56.339844 18.867188 56.3125 C 18.84375 55.089844 18.898438 49.113281 21.859375 45.457031 C 21.824219 45.789062 21.820312 46.121094 21.855469 46.453125 C 21.910156 46.960938 22.042969 47.449219 22.246094 47.917969 C 22.394531 49.636719 22.359375 52.527344 21.078125 53.613281 C 20.957031 53.714844 20.886719 53.847656 20.875 54.003906 C 20.859375 54.164062 20.90625 54.304688 21.007812 54.425781 C 21.109375 54.546875 21.242188 54.613281 21.402344 54.625 C 21.558594 54.636719 21.699219 54.59375 21.820312 54.488281 C 23.0625 53.433594 23.402344 51.414062 23.445312 49.722656 C 23.847656 50.15625 24.289062 50.546875 24.769531 50.898438 C 24.945312 51.03125 25.144531 51.078125 25.363281 51.046875 C 25.578125 51.015625 25.753906 50.910156 25.886719 50.730469 C 26.015625 50.554688 26.066406 50.355469 26.03125 50.140625 C 26 49.921875 25.894531 49.746094 25.71875 49.613281 C 24.339844 48.59375 23.574219 47.480469 23.445312 46.304688 C 23.269531 44.691406 24.351562 43.425781 24.367188 43.40625 C 24.4375 43.328125 24.488281 43.238281 24.523438 43.136719 C 25.808594 42.265625 27.328125 41.414062 28.855469 40.636719 L 28.855469 47.453125 C 28.855469 52.011719 26.5 56.175781 22.539062 58.601562 L 14.761719 63.546875 C 13.667969 64.242188 11.730469 64.773438 10.621094 64.683594 C 6.605469 64.359375 3.722656 60.695312 3.921875 56.164062 C 4.765625 36.917969 14.066406 24.648438 18.867188 20.851562 C 20.824219 19.300781 23.785156 18.214844 25.984375 19.28125 C 27.863281 20.1875 28.855469 22.566406 28.855469 26.152344 C 28.855469 26.152344 28.855469 35.207031 28.859375 35.207031 Z M 33.503906 12.339844 C 33.804688 11.730469 34.722656 11.316406 35.921875 11.316406 C 37.152344 11.316406 38.121094 11.742188 38.425781 12.355469 L 38.425781 14.847656 C 37.773438 14.457031 36.917969 14.222656 35.921875 14.222656 C 34.957031 14.222656 34.136719 14.441406 33.503906 14.8125 Z M 33.503906 16.390625 C 33.804688 15.78125 34.722656 15.367188 35.921875 15.367188 C 37.152344 15.367188 38.121094 15.796875 38.425781 16.410156 L 38.425781 18.898438 C 37.777344 18.507812 36.917969 18.273438 35.921875 18.273438 C 34.957031 18.273438 34.136719 18.496094 33.507812 18.867188 Z M 33.503906 20.445312 C 33.804688 19.832031 34.722656 19.417969 35.921875 19.417969 C 37.152344 19.417969 38.121094 19.847656 38.425781 20.460938 L 38.425781 22.949219 C 37.773438 22.558594 36.917969 22.324219 35.921875 22.324219 C 34.957031 22.324219 34.136719 22.546875 33.503906 22.917969 Z M 38.425781 8.484375 L 38.425781 10.796875 C 37.773438 10.40625 36.917969 10.171875 35.921875 10.171875 C 34.957031 10.171875 34.136719 10.390625 33.503906 10.761719 L 33.503906 8.488281 C 33.503906 7.722656 34.558594 7.144531 35.957031 7.144531 C 37.367188 7.144531 38.429688 7.722656 38.429688 8.488281 Z M 43.136719 40.652344 C 44.667969 41.429688 46.191406 42.273438 47.472656 43.144531 C 47.507812 43.242188 47.558594 43.332031 47.628906 43.410156 C 47.640625 43.421875 48.71875 44.6875 48.550781 46.289062 C 48.425781 47.472656 47.660156 48.589844 46.273438 49.613281 C 46.097656 49.746094 45.992188 49.921875 45.960938 50.140625 C 45.925781 50.355469 45.976562 50.554688 46.105469 50.730469 C 46.238281 50.910156 46.414062 51.015625 46.632812 51.046875 C 46.847656 51.082031 47.046875 51.03125 47.226562 50.898438 C 47.703125 50.546875 48.144531 50.15625 48.546875 49.722656 C 48.59375 51.414062 48.933594 53.433594 50.171875 54.488281 C 50.292969 54.59375 50.433594 54.636719 50.59375 54.625 C 50.75 54.613281 50.882812 54.546875 50.984375 54.425781 C 51.089844 54.304688 51.132812 54.164062 51.121094 54.003906 C 51.105469 53.847656 51.039062 53.714844 50.914062 53.613281 C 49.636719 52.527344 49.597656 49.636719 49.746094 47.917969 C 49.953125 47.449219 50.082031 46.960938 50.140625 46.453125 C 50.171875 46.121094 50.167969 45.789062 50.132812 45.457031 C 53.097656 49.117188 53.152344 55.09375 53.128906 56.3125 C 53.128906 56.339844 53.128906 56.410156 53.128906 56.4375 C 53.304688 58.246094 54.003906 58.683594 54.5625 58.730469 C 54.59375 58.730469 54.628906 58.734375 54.660156 58.734375 C 55.378906 58.734375 56 58.070312 56.296875 56.972656 C 56.363281 56.738281 56.601562 54.667969 56.429688 52.089844 C 56.96875 52.59375 57.566406 53.015625 58.222656 53.351562 C 58.230469 53.371094 58.242188 53.386719 58.253906 53.402344 C 58.277344 53.425781 60.664062 55.851562 60.101562 58.679688 C 60.070312 58.835938 60.097656 58.980469 60.183594 59.113281 C 60.273438 59.242188 60.394531 59.324219 60.550781 59.355469 C 60.585938 59.363281 60.625 59.367188 60.664062 59.367188 C 60.800781 59.367188 60.921875 59.324219 61.027344 59.238281 C 61.132812 59.152344 61.195312 59.039062 61.222656 58.90625 C 61.609375 56.984375 60.917969 55.269531 60.21875 54.113281 C 61.277344 54.398438 62.519531 54.578125 63.996094 54.578125 C 64.214844 54.574219 64.402344 54.496094 64.554688 54.339844 C 64.710938 54.183594 64.789062 53.996094 64.789062 53.777344 C 64.789062 53.558594 64.710938 53.371094 64.554688 53.214844 C 64.402344 53.058594 64.214844 52.980469 63.996094 52.980469 C 57.183594 52.980469 56.117188 48.878906 56.074219 48.691406 C 56.039062 48.558594 55.972656 48.4375 55.871094 48.339844 C 55.785156 47.980469 55.691406 47.625 55.582031 47.273438 C 56.382812 47.210938 57.179688 47.089844 57.960938 46.90625 C 59.089844 46.984375 61.097656 47.378906 61.457031 49.171875 C 61.484375 49.308594 61.550781 49.417969 61.65625 49.503906 C 61.761719 49.589844 61.882812 49.632812 62.019531 49.632812 C 62.054688 49.632812 62.09375 49.628906 62.132812 49.625 C 62.285156 49.59375 62.40625 49.511719 62.496094 49.378906 C 62.582031 49.246094 62.613281 49.105469 62.582031 48.949219 C 62.296875 47.523438 61.3125 46.691406 60.195312 46.230469 C 60.925781 45.960938 61.621094 45.617188 62.285156 45.203125 C 62.714844 44.921875 63.449219 44.339844 63.542969 43.582031 C 63.589844 43.195312 63.480469 42.859375 63.210938 42.578125 C 62.277344 41.574219 61.183594 42.101562 60.65625 42.359375 C 57.652344 43.808594 54.160156 43.554688 53.519531 42.996094 C 53.082031 42.394531 52.53125 41.835938 52 41.308594 C 50.945312 40.261719 50.164062 39.535156 49.289062 38.886719 C 49.746094 38.550781 50.234375 38.273438 50.757812 38.0625 C 50.863281 38.089844 50.96875 38.097656 51.078125 38.085938 C 51.296875 38.054688 53.25 37.871094 53.882812 40.238281 C 53.929688 40.414062 54.023438 40.558594 54.167969 40.667969 C 54.3125 40.777344 54.472656 40.832031 54.652344 40.832031 C 54.722656 40.832031 54.792969 40.824219 54.859375 40.804688 C 55.074219 40.75 55.234375 40.625 55.347656 40.433594 C 55.457031 40.242188 55.484375 40.042969 55.425781 39.828125 C 55.125 38.691406 54.582031 37.917969 53.957031 37.398438 C 55.128906 37.378906 56.273438 37.550781 57.390625 37.921875 C 57.488281 37.957031 57.582031 37.992188 57.671875 38.027344 C 58.128906 38.203125 58.984375 38.535156 59.609375 37.574219 C 59.996094 36.980469 59.960938 36.035156 58.695312 35.179688 C 57.941406 34.667969 56.953125 34.285156 55.886719 34.035156 C 56.527344 33.480469 57.0625 32.609375 57.21875 31.257812 C 57.234375 31.101562 57.195312 30.960938 57.097656 30.835938 C 57 30.710938 56.871094 30.640625 56.714844 30.625 C 56.558594 30.605469 56.417969 30.644531 56.292969 30.742188 C 56.167969 30.84375 56.097656 30.96875 56.078125 31.125 C 55.789062 33.679688 53.90625 33.710938 53.695312 33.714844 C 53.679688 33.714844 53.660156 33.71875 53.640625 33.722656 C 52.570312 33.667969 51.511719 33.746094 50.601562 33.976562 C 50.652344 33.347656 50.671875 32.699219 50.679688 32.042969 C 50.777344 31.914062 50.824219 31.769531 50.820312 31.605469 C 50.816406 31.59375 50.753906 30.097656 51.734375 29.0625 C 52.398438 28.363281 53.414062 28.007812 54.753906 28.007812 C 54.949219 28.007812 55.113281 27.9375 55.25 27.796875 C 55.386719 27.660156 55.453125 27.492188 55.453125 27.300781 C 55.453125 27.105469 55.386719 26.941406 55.25 26.800781 C 55.113281 26.664062 54.949219 26.59375 54.753906 26.589844 C 53 26.589844 51.636719 27.097656 50.691406 28.101562 C 50.617188 28.179688 50.5625 28.265625 50.496094 28.351562 C 50.351562 27.109375 50.128906 26.003906 49.835938 25.230469 C 49.367188 23.980469 48.53125 23.089844 47.707031 22.957031 C 47.226562 22.871094 46.835938 23.023438 46.535156 23.40625 C 45.90625 24.1875 46.128906 25.210938 46.289062 25.960938 C 46.3125 26.074219 46.335938 26.183594 46.355469 26.28125 C 47.148438 30.578125 46.675781 35.40625 45.421875 36.609375 C 45.171875 36.457031 44.921875 36.304688 44.667969 36.15625 C 44.144531 35.839844 43.625 35.53125 43.132812 35.207031 C 43.136719 35.207031 43.136719 26.152344 43.136719 26.152344 C 43.136719 22.566406 44.128906 20.1875 46.007812 19.28125 C 48.207031 18.214844 51.167969 19.300781 53.125 20.851562 C 57.925781 24.648438 67.226562 36.914062 68.070312 56.164062 C 68.269531 60.695312 65.390625 64.359375 61.371094 64.683594 C 60.253906 64.773438 58.324219 64.242188 57.234375 63.546875 L 49.441406 58.59375 C 45.496094 56.175781 43.136719 52.011719 43.136719 47.453125 Z M 43.136719 40.652344 " fill-opacity="1" fill-rule="nonzero"/></g></svg>